<?xml version="1.0" standalone="no"?>
<!DOCTYPE svg PUBLIC "-//W3C//DTD SVG 20010904//EN"
 "http://www.w3.org/TR/2001/REC-SVG-20010904/DTD/svg10.dtd">
<svg version="1.0" xmlns="http://www.w3.org/2000/svg"
 width="960.000000pt" height="960.000000pt" viewBox="0 0 960.000000 960.000000"
 preserveAspectRatio="xMidYMid meet">
<metadata>
Created by potrace 1.16, written by Peter Selinger 2001-2019
</metadata>
<g transform="translate(0.000000,960.000000) scale(0.100000,-0.100000)"
fill="#000000" stroke="none">
<path d="M2010 9594 c0 -8 149 -75 163 -73 19 4 110 -13 130 -23 34 -17 20
-46 -35 -73 -92 -45 -108 -56 -108 -71 0 -7 -7 -14 -15 -14 -31 0 -66 -24 -62
-42 3 -10 1 -18 -4 -18 -4 0 -36 -18 -70 -40 -34 -22 -68 -40 -75 -40 -7 0
-17 -6 -21 -13 -4 -7 -29 -28 -55 -46 -35 -25 -53 -32 -72 -27 -19 5 -26 2
-26 -8 0 -19 -77 -80 -123 -97 -20 -7 -44 -23 -52 -36 -18 -27 -98 -83 -119
-83 -22 0 -76 -49 -76 -69 0 -9 -7 -26 -15 -37 -19 -26 -19 -29 9 -42 16 -7
26 -21 28 -38 4 -38 45 -64 110 -71 49 -5 57 -3 79 19 23 24 26 25 92 15 37
-6 67 -15 67 -20 0 -5 -18 -30 -40 -55 -23 -25 -48 -61 -57 -79 -24 -51 -77
-93 -118 -93 -19 0 -35 -4 -35 -10 0 -5 7 -10 15 -10 8 0 15 -7 15 -15 0 -22
-76 -158 -100 -180 -20 -18 -26 -46 -13 -59 4 -3 12 -22 19 -41 10 -30 9 -45
-8 -97 -10 -34 -25 -69 -32 -78 -8 -8 -23 -34 -34 -56 -12 -23 -30 -44 -41
-47 -12 -3 -25 -16 -31 -29 -5 -12 -14 -30 -19 -38 -6 -8 -20 -37 -33 -64 -12
-26 -32 -56 -44 -65 -16 -13 -21 -27 -20 -58 0 -29 -6 -51 -22 -72 -12 -17
-22 -36 -22 -42 0 -7 -18 -50 -40 -96 -35 -72 -45 -84 -73 -91 -25 -6 -37 -18
-55 -56 -17 -35 -20 -52 -13 -59 6 -6 11 -18 11 -26 0 -9 15 -34 34 -56 33
-39 34 -39 72 -27 22 6 75 35 119 64 68 45 81 58 87 88 7 38 36 66 52 50 7 -7
2 -34 -13 -82 -14 -43 -27 -116 -32 -178 -4 -58 -14 -121 -23 -141 -13 -32
-13 -42 1 -98 13 -49 14 -68 5 -82 -15 -23 -15 -56 -2 -64 5 -3 10 -22 10 -40
0 -29 4 -36 26 -41 14 -4 30 -17 35 -31 13 -35 37 -14 41 35 3 35 5 37 43 40
22 1 51 8 63 14 28 14 56 64 48 85 -3 8 1 27 9 43 20 38 19 69 -4 135 -17 49
-18 58 -4 96 8 26 12 57 8 80 -6 36 -5 38 39 64 26 15 52 25 59 22 6 -2 18
-24 25 -48 11 -38 11 -50 -3 -82 -19 -46 -13 -70 20 -85 30 -14 30 -16 8 -97
-14 -54 -15 -69 -4 -103 10 -29 10 -44 2 -60 -11 -21 5 -66 37 -100 7 -8 10
-22 7 -31 -16 -40 -15 -70 0 -131 10 -36 18 -90 19 -120 1 -40 9 -68 29 -102
15 -26 27 -55 27 -64 0 -10 12 -35 27 -57 22 -32 25 -42 15 -58 -17 -27 -15
-57 9 -95 12 -21 18 -41 14 -54 -4 -14 3 -31 25 -57 30 -36 80 -141 80 -169 0
-6 -7 -14 -15 -18 -22 -8 -19 -40 9 -94 13 -27 27 -65 31 -85 9 -49 -7 -54
-99 -35 -39 9 -72 15 -74 13 -1 -1 22 -11 51 -22 30 -11 89 -42 131 -69 64
-40 77 -52 72 -69 -19 -74 -37 -171 -42 -240 -6 -77 -7 -79 -22 -55 -8 14 -73
82 -145 152 -110 108 -142 133 -213 168 -46 23 -91 40 -101 38 -28 -5 -71
-103 -88 -203 -9 -49 -19 -175 -22 -280 -5 -178 -4 -197 20 -305 14 -63 28
-137 33 -165 4 -27 9 -43 11 -35 2 8 -6 67 -18 130 -44 240 -47 342 -14 575
18 132 23 152 46 200 21 43 21 43 -10 -95 -28 -124 -33 -171 -32 -316 0 -129
17 -245 45 -308 26 -60 35 -92 46 -161 22 -140 44 -224 71 -277 5 -10 9 -25 9
-33 0 -9 4 -14 9 -11 4 3 6 -7 2 -22 -5 -25 -6 -25 -9 -5 -4 30 -22 30 -23 1
0 -15 -2 -18 -6 -8 -3 8 -13 31 -22 50 -16 30 -35 86 -80 230 -10 32 -10 29
-5 -25 7 -90 68 -259 120 -337 25 -37 51 -89 58 -115 7 -26 20 -62 29 -79 22
-42 100 -112 150 -133 42 -18 190 -57 237 -63 23 -3 25 -8 31 -68 3 -36 2 -69
-3 -75 -20 -23 -7 -68 32 -111 48 -53 50 -74 7 -94 -23 -11 -33 -23 -35 -43
-4 -33 13 -57 39 -57 21 0 33 -20 44 -67 7 -34 2 -43 -47 -93 -34 -34 -34 -40
-4 -69 19 -18 28 -21 43 -13 11 6 24 7 30 4 15 -10 33 -57 33 -87 0 -25 -30
-85 -42 -85 -5 0 -8 -9 -8 -19 0 -16 15 -31 68 -66 1 -2 -7 -27 -18 -57 -11
-31 -18 -63 -14 -72 4 -9 27 -22 52 -29 35 -9 48 -19 58 -42 11 -25 10 -34 -2
-53 -8 -13 -14 -31 -13 -40 1 -9 -2 -25 -6 -36 -6 -13 -3 -21 9 -28 10 -6 27
-21 39 -34 12 -14 27 -22 33 -20 23 9 46 -29 39 -65 -6 -37 -1 -48 30 -65 11
-6 20 -20 21 -30 2 -34 4 -37 18 -25 12 10 19 5 40 -26 21 -30 26 -50 26 -98
0 -84 14 -102 32 -40 l15 48 39 -64 c39 -64 39 -64 41 -179 2 -130 11 -217 24
-242 5 -9 11 -37 13 -62 3 -25 12 -56 20 -68 9 -12 16 -36 16 -53 0 -17 5 -36
12 -43 19 -19 37 -81 25 -85 -10 -3 20 -69 36 -75 4 -2 5 -8 2 -12 -3 -5 11
-14 30 -21 49 -18 46 -39 -5 -32 -26 4 -40 2 -40 -6 0 -6 5 -11 10 -11 6 0 10
-16 10 -35 0 -25 4 -35 16 -35 8 0 13 -4 10 -9 -4 -5 3 -7 14 -4 15 4 20 0 20
-16 0 -14 -5 -19 -15 -15 -10 4 -15 0 -15 -15 0 -12 -3 -21 -8 -21 -12 0 -33
40 -26 51 3 6 -4 19 -16 29 -13 11 -20 26 -17 34 4 9 1 18 -5 22 -7 4 -6 9 2
14 15 9 4 30 -15 30 -8 0 -17 11 -21 25 -3 14 -10 25 -15 25 -5 0 -9 10 -9 23
0 13 -7 32 -15 43 -8 10 -15 33 -15 51 0 38 -19 83 -34 83 -20 0 -36 56 -39
128 -1 40 -4 72 -7 72 -3 0 -6 21 -6 48 -1 26 -9 74 -17 107 -14 57 -15 42
-11 -254 l4 -315 29 -45 c15 -25 42 -73 58 -106 85 -167 342 -516 520 -705
l85 -90 74 0 75 0 -37 38 c-20 20 -50 55 -66 77 -16 21 -48 60 -71 86 -23 25
-49 57 -57 71 -41 68 -63 98 -71 98 -4 0 -20 20 -34 44 -14 24 -33 47 -41 50
-8 3 -12 10 -9 16 3 5 -5 15 -19 22 -18 7 -26 19 -26 36 0 19 -4 23 -19 19
-12 -3 -18 1 -17 11 0 9 -11 22 -26 30 -16 7 -28 20 -28 28 0 7 -4 14 -10 14
-5 0 -10 6 -10 13 0 6 -7 24 -14 40 -20 38 -3 34 45 -10 28 -26 36 -39 27 -45
-10 -5 -8 -8 5 -8 11 0 17 -8 17 -24 0 -17 7 -27 23 -32 12 -3 30 -13 40 -22
11 -9 17 -11 17 -4 0 7 5 12 10 12 6 0 10 -7 10 -15 0 -8 5 -15 10 -15 6 0 8
17 4 43 -8 58 -12 69 -24 62 -6 -4 -10 7 -10 25 0 27 2 30 19 20 11 -5 23 -15
26 -20 3 -6 17 -7 31 -4 19 5 29 0 45 -20 12 -15 27 -25 33 -23 7 3 20 -1 31
-9 10 -8 27 -14 37 -14 10 0 18 -6 18 -14 0 -8 18 -30 40 -49 22 -19 40 -42
40 -51 0 -18 54 -76 71 -76 5 0 9 -4 9 -10 0 -17 74 -41 118 -38 36 3 42 0 43
-17 0 -11 3 -14 6 -7 2 6 21 12 41 12 26 0 33 -3 23 -9 -8 -5 -23 -8 -33 -6
-10 2 -18 -2 -18 -10 0 -20 44 -47 64 -39 9 3 16 2 16 -3 0 -12 43 -63 53 -63
4 0 7 7 7 15 0 8 5 15 10 15 6 0 10 -11 10 -25 0 -14 4 -25 10 -25 13 0 70
-60 70 -74 0 -6 9 -17 20 -24 11 -7 20 -19 20 -28 0 -8 4 -13 9 -9 12 7 34
-32 26 -45 -4 -7 348 -10 1007 -10 l1014 0 16 27 c9 16 91 102 183 193 189
187 439 458 485 527 79 116 160 326 160 413 0 19 9 85 19 145 11 61 22 187 25
280 4 94 12 207 18 252 12 80 13 83 55 115 24 18 46 44 50 58 3 14 24 44 45
68 35 38 39 48 34 77 -5 24 -3 34 9 39 19 7 20 26 0 26 -8 0 -15 7 -15 15 0
10 10 15 33 15 54 0 131 84 97 105 -5 3 -10 16 -10 27 0 11 -8 27 -17 34 -17
13 -15 16 21 48 22 20 52 40 68 47 35 14 35 24 -1 59 l-30 27 21 44 c12 24 28
52 37 63 15 17 14 20 -18 47 l-34 28 26 12 c20 9 24 16 17 28 -11 22 -4 32 43
60 38 23 38 23 21 49 -10 15 -27 34 -38 44 -21 16 -21 17 -2 31 13 10 15 16 8
21 -20 12 -14 21 33 54 25 17 45 38 45 46 0 8 -16 31 -35 52 -28 29 -35 45
-35 77 0 34 6 46 45 83 25 23 45 48 45 55 0 7 -15 28 -32 46 -31 32 -32 35
-17 61 14 26 19 27 114 33 104 7 148 19 251 70 95 47 127 86 209 254 103 210
129 281 158 430 15 72 41 204 59 295 53 263 45 482 -23 702 -17 52 -32 78 -67
113 -25 25 -56 48 -70 52 -44 11 -155 -7 -266 -42 -143 -46 -150 -46 -141 3 4
20 15 63 26 94 21 64 24 82 9 73 -30 -18 6 80 46 128 22 26 25 38 20 73 -4 35
-2 45 19 64 28 27 32 48 10 56 -23 9 -18 46 15 107 20 38 30 71 30 100 0 35 6
49 30 72 33 31 37 57 15 95 -20 35 -18 69 5 115 12 23 20 56 18 76 -1 21 7 53
20 77 14 28 21 58 20 90 0 27 8 72 21 106 20 53 21 60 7 68 -20 11 -20 37 -1
62 19 25 19 63 0 96 -20 35 -18 64 5 111 18 34 19 45 9 78 -10 35 -9 42 10 67
13 17 21 40 20 63 -1 30 -2 32 -8 12 -11 -40 -28 -36 -33 9 -2 27 1 45 11 55
11 10 11 15 3 15 -7 0 -12 9 -12 20 0 11 -7 23 -15 26 -10 4 -15 20 -15 44 0
22 -4 42 -10 45 -5 3 -10 25 -10 47 0 24 -7 49 -16 59 -15 17 -14 25 15 107
18 48 29 95 26 104 -4 10 2 22 16 32 21 14 22 19 11 48 -13 37 -14 147 -1 164
5 6 4 25 -2 43 -6 18 -9 57 -7 87 5 58 -5 77 -25 49 -27 -35 -74 17 -75 84 0
18 -7 40 -15 50 -15 17 -47 109 -47 134 0 8 -20 39 -44 68 -24 30 -57 81 -73
114 -25 53 -32 61 -62 65 l-34 5 2 113 c2 109 -5 136 -25 88 -5 -12 -27 -64
-48 -115 -35 -83 -41 -91 -66 -91 -25 0 -30 8 -61 83 -19 45 -39 82 -44 82 -5
0 -25 -37 -44 -82 -28 -69 -38 -83 -56 -83 -33 0 -29 -7 -132 238 -3 8 4 12
21 12 21 0 30 -7 42 -35 8 -20 26 -61 40 -93 l25 -57 39 90 c35 81 41 90 65
90 24 0 30 -8 63 -87 21 -48 39 -88 42 -88 3 0 21 40 41 88 l37 87 48 3 c26 2
50 -2 54 -8 4 -7 18 -6 43 5 81 34 158 6 177 -65 6 -22 10 -50 9 -62 -5 -52
-1 -58 39 -58 31 0 41 5 52 25 10 19 21 25 46 25 42 0 66 34 39 54 -16 11 -15
15 10 44 44 53 132 67 200 32 44 -23 54 -25 38 -9 -6 6 -9 29 -7 52 4 40 1 44
-43 81 -26 21 -49 33 -51 27 -6 -18 -27 -13 -52 14 -17 18 -34 25 -61 25 -21
0 -42 7 -50 16 -9 11 -23 14 -49 10 -26 -4 -43 0 -65 14 -17 11 -40 20 -53 20
-12 0 -41 9 -62 20 -22 11 -61 23 -87 27 -28 3 -75 22 -113 44 -36 20 -81 40
-100 44 -64 11 -110 36 -110 59 0 21 22 38 112 90 26 15 52 35 58 46 11 20 -7
20 -2755 20 -1521 0 -2765 -3 -2765 -6z m4800 -659 l0 -175 -24 0 c-13 0 -26
5 -28 10 -2 7 -18 5 -43 -6 -143 -59 -276 91 -180 204 43 52 123 62 208 27 15
-6 17 0 17 54 0 58 1 61 25 61 l25 0 0 -175z m224 71 c55 -23 66 -48 66 -153
0 -93 0 -93 -25 -93 -14 0 -25 4 -25 10 0 5 -19 3 -41 -5 -113 -40 -214 10
-178 89 15 31 65 51 152 61 37 3 67 10 67 13 -1 27 -23 37 -81 37 -54 0 -63
-3 -85 -28 -20 -24 -27 -27 -39 -17 -20 17 -19 23 11 54 44 43 118 57 178 32z
m-2365 -457 c20 -6 44 -16 55 -21 10 -5 44 -7 77 -3 48 6 65 4 86 -10 20 -13
37 -16 72 -10 51 7 74 9 111 5 14 -1 76 3 139 9 107 10 117 9 160 -11 31 -14
66 -21 106 -21 33 0 65 -3 70 -7 6 -5 46 -11 90 -15 49 -5 90 -14 105 -25 14
-9 48 -20 75 -24 28 -4 73 -11 101 -15 28 -3 63 -14 77 -24 15 -9 36 -17 49
-17 21 0 21 0 2 -14 -18 -14 -18 -16 24 -76 23 -34 42 -65 42 -70 0 -5 26 -65
59 -132 32 -68 62 -134 66 -148 4 -14 25 -62 46 -106 22 -45 39 -86 39 -90 0
-8 71 -195 94 -249 31 -70 66 -164 66 -177 0 -8 4 -18 9 -23 29 -30 61 -254
64 -449 0 -33 3 -51 7 -41 10 29 34 -40 33 -97 0 -35 3 -48 14 -48 7 0 13 -6
11 -12 -7 -37 14 -70 57 -89 31 -14 45 -26 45 -39 0 -11 11 -30 25 -44 14 -14
25 -36 25 -49 0 -14 7 -27 15 -31 10 -3 15 -19 15 -44 0 -21 5 -43 11 -49 15
-15 13 -111 -2 -129 -6 -8 -19 -14 -28 -14 -13 -1 -13 -3 3 -15 45 -34 -11
-11 -100 40 -53 30 -100 55 -105 55 -14 0 -11 -11 9 -33 16 -19 16 -20 -1 -14
-58 21 -188 30 -293 19 -80 -8 -130 -8 -179 -1 -48 8 -119 8 -247 0 -98 -7
-201 -9 -227 -5 -73 10 -133 -23 -183 -100 -21 -33 -38 -67 -38 -77 0 -10 -4
-20 -9 -23 -4 -3 -16 34 -25 82 -10 50 -23 90 -32 95 -8 4 -14 14 -14 21 0 7
-6 20 -13 30 -28 38 -67 -16 -67 -93 0 -52 -162 -291 -205 -303 -35 -10 -121
-1 -148 16 -25 15 -59 91 -66 150 -3 27 -11 51 -17 53 -15 5 -24 -43 -12 -55
6 -6 7 -19 3 -31 -6 -19 -8 -20 -22 -5 -13 13 -14 23 -5 62 6 26 8 50 5 54 -8
14 -20 0 -27 -29 -12 -47 -47 -113 -61 -113 -7 0 -16 -7 -19 -15 -3 -9 -11
-15 -18 -13 -7 1 -24 -4 -37 -11 -14 -8 -38 -11 -58 -8 -18 3 -55 0 -82 -7
-49 -13 -49 -13 -54 13 -19 106 -72 261 -88 261 -4 0 -18 18 -30 40 -13 22
-26 40 -30 40 -5 0 -11 -17 -14 -37 -9 -54 -25 -93 -49 -114 -27 -26 -39 -24
-60 12 -10 17 -39 44 -65 60 -40 26 -55 30 -111 28 -36 -1 -72 2 -80 5 -29 11
-225 23 -310 19 -47 -3 -146 -4 -220 -3 -105 1 -157 -3 -232 -20 -66 -14 -103
-18 -115 -12 -29 15 -116 -13 -243 -77 -130 -65 -187 -100 -212 -127 -18 -21
-108 -198 -108 -214 0 -14 139 -80 156 -73 8 3 14 0 14 -6 0 -6 6 -11 12 -11
7 0 32 -8 55 -17 43 -18 56 -33 28 -33 -8 0 -15 -4 -15 -10 0 -5 6 -10 14 -10
13 0 26 -19 32 -48 1 -7 -5 -16 -13 -19 -13 -5 -12 -8 7 -15 16 -6 26 -5 32 4
6 10 8 9 8 -3 0 -22 -56 -73 -71 -64 -7 5 -10 4 -5 -3 3 -6 -1 -18 -10 -27
-30 -30 -7 -27 66 9 40 20 75 36 79 36 11 0 -79 -80 -90 -80 -6 0 -24 -10 -41
-21 -17 -12 -43 -22 -59 -23 -46 -2 -35 -28 29 -64 50 -30 63 -33 103 -28 45
6 47 6 95 -46 27 -29 69 -76 93 -105 50 -61 93 -90 181 -128 168 -70 288 -72
485 -7 128 42 249 94 260 111 4 7 -12 11 -47 12 -72 1 -156 14 -138 21 14 6
71 18 110 24 61 9 191 16 206 10 15 -6 14 -10 -15 -36 -43 -40 -98 -170 -71
-170 5 0 51 40 102 88 l92 89 -14 47 c-7 26 -30 73 -51 104 -21 31 -37 58 -35
60 2 2 18 -3 34 -12 29 -15 53 -38 104 -100 23 -27 26 -28 62 -16 42 13 71 7
63 -15 -4 -10 -1 -12 10 -8 9 4 21 -1 29 -11 10 -14 17 -15 32 -7 29 15 61 64
69 103 9 47 30 76 56 76 22 0 106 32 137 53 90 59 242 51 303 -16 15 -16 17
-28 12 -60 -15 -78 -11 -113 15 -135 33 -29 46 -20 42 28 -3 31 2 47 17 63
l21 23 25 -24 c13 -13 28 -32 31 -44 4 -11 17 -29 30 -39 13 -10 24 -22 24
-27 0 -8 27 -43 68 -87 12 -13 22 -28 22 -32 0 -5 15 -20 33 -34 17 -14 41
-34 53 -45 40 -38 60 -43 79 -22 15 16 16 25 7 43 -5 12 -12 31 -15 42 -3 11
-8 28 -12 38 -15 36 34 17 100 -39 56 -48 73 -57 111 -59 39 -3 46 0 54 18 7
18 2 28 -33 59 -23 21 -55 49 -70 63 -16 14 -26 29 -23 34 11 17 110 33 241
38 123 5 132 4 157 -16 24 -19 26 -25 15 -44 -14 -26 -28 -37 -39 -31 -4 3
-20 -2 -35 -9 -18 -9 -46 -13 -78 -10 l-50 4 81 -41 c45 -22 122 -54 170 -71
93 -33 121 -36 494 -53 101 -4 107 -4 45 4 -38 6 -92 13 -120 18 l-50 7 98 24
c54 14 103 31 109 38 12 15 32 18 23 3 -3 -5 -2 -10 4 -10 5 0 13 5 16 10 4 6
10 8 15 5 5 -3 14 4 21 16 9 17 13 19 20 8 7 -12 9 -11 10 1 0 8 2 23 4 34 3
14 1 16 -8 7 -27 -27 -26 -8 1 23 16 19 44 55 62 80 18 27 36 44 42 40 7 -5 9
0 6 12 -4 17 1 19 64 19 70 0 88 -8 43 -19 -14 -4 -25 -13 -25 -20 0 -19 50
-29 129 -27 43 1 68 -3 73 -11 6 -10 10 -10 18 2 6 9 10 10 10 3 0 -6 -4 -14
-9 -17 -15 -10 -1 -44 20 -49 10 -3 19 0 19 5 0 6 9 3 20 -7 11 -10 20 -28 20
-41 0 -13 5 -26 12 -30 8 -5 9 0 6 14 -4 12 -2 20 3 16 5 -3 9 13 9 35 0 21 5
41 11 43 20 7 23 277 5 453 -18 170 -32 233 -54 251 -12 9 -12 13 2 26 9 9 16
28 16 41 0 31 70 168 81 161 5 -3 9 2 9 10 0 9 4 16 8 16 5 0 13 36 18 80 5
44 6 80 2 80 -5 0 -9 -8 -9 -17 -1 -10 -5 0 -9 22 -5 27 -4 42 4 48 8 5 7 9
-3 16 -8 5 -10 14 -5 22 5 8 11 33 14 57 6 53 23 55 31 5 5 -32 6 -28 8 25 0
34 6 62 11 62 6 0 10 -3 10 -7 0 -5 7 -102 15 -218 8 -115 19 -329 25 -475 11
-308 28 -467 70 -652 62 -267 70 -315 76 -428 7 -122 -7 -313 -33 -440 -14
-75 -102 -365 -108 -358 -1 1 3 37 11 78 7 41 13 127 13 190 0 63 5 142 11
175 26 153 -5 335 -40 231 -11 -34 -30 -49 -30 -25 0 5 -4 8 -9 5 -5 -3 -21
40 -36 97 -14 56 -31 110 -36 119 -5 10 -9 30 -10 45 0 16 -8 50 -18 77 l-17
50 -13 -46 c-9 -31 -10 -52 -3 -64 12 -23 -3 -147 -18 -152 -6 -2 -10 -12 -10
-23 0 -10 -3 -19 -8 -19 -4 0 -16 -17 -27 -37 -11 -21 -25 -42 -32 -46 -7 -4
-13 -27 -13 -52 0 -41 -19 -76 -21 -38 0 13 -4 11 -12 -8 -7 -14 -18 -33 -26
-43 -9 -10 -10 -16 -2 -16 16 0 14 -16 -5 -35 -11 -11 -19 -13 -23 -6 -5 7
-14 6 -29 -5 -21 -14 -32 -42 -13 -29 5 3 12 1 15 -4 10 -15 -24 -42 -44 -36
-12 4 -29 -3 -47 -19 -71 -63 -102 -86 -113 -86 -7 0 -10 -6 -7 -14 3 -8 -1
-20 -9 -27 -8 -7 -12 -20 -9 -30 4 -11 2 -19 -4 -19 -6 0 -11 -6 -11 -13 0 -7
-13 -29 -30 -47 -16 -18 -30 -44 -30 -57 0 -13 -7 -26 -15 -29 -8 -4 -15 -15
-15 -25 0 -10 -9 -28 -20 -39 -11 -11 -26 -34 -35 -52 -8 -18 -19 -40 -25 -48
-16 -24 -80 -166 -80 -177 0 -6 -14 -38 -30 -71 -17 -34 -30 -66 -30 -72 0 -6
-10 -30 -21 -53 -12 -23 -21 -43 -20 -45 5 -5 -11 -67 -20 -77 -4 -6 -15 -67
-24 -135 -11 -78 -22 -129 -31 -136 -8 -6 -14 -17 -14 -24 0 -27 -35 -89 -50
-88 -44 3 -61 -4 -72 -27 -15 -34 -48 -17 -48 27 0 17 -12 51 -26 75 -21 37
-28 42 -40 32 -8 -7 -13 -17 -11 -23 15 -40 17 -56 8 -56 -6 0 -11 5 -11 12 0
6 -7 19 -16 29 -13 15 -21 43 -23 87 -1 7 -13 17 -28 23 -16 6 -36 17 -45 26
-20 18 -38 9 -38 -18 0 -26 -21 -20 -37 11 -17 33 -37 42 -67 29 -22 -10 -29
-9 -46 6 -11 10 -22 25 -25 34 -6 20 -56 51 -81 51 -10 0 -41 11 -69 24 -61
30 -212 92 -244 101 -44 13 -5 25 95 31 172 9 209 18 264 64 69 58 79 96 52
187 -12 37 -53 131 -92 207 -38 77 -70 147 -70 156 0 31 -40 135 -63 161 -33
39 -117 82 -164 85 -45 3 -89 28 -96 54 -2 10 -10 4 -24 -18 -11 -19 -19 -42
-16 -52 4 -14 -2 -21 -21 -26 -34 -8 -33 -30 3 -48 16 -9 48 -43 71 -77 63
-92 114 -132 209 -163 71 -23 98 -41 106 -73 9 -35 -15 -111 -34 -112 -9 -1
-59 -5 -111 -9 -113 -10 -141 -4 -157 30 -20 41 -42 52 -102 55 -64 2 -88 6
-97 16 -11 11 -158 -5 -171 -19 -7 -7 -22 -10 -33 -7 -12 3 -20 0 -20 -6 0 -8
-12 -11 -32 -9 -18 2 -31 7 -30 12 7 18 -30 28 -79 21 -27 -4 -47 -10 -44 -15
6 -10 -75 -21 -103 -13 -12 3 -28 1 -35 -4 -6 -5 -30 -9 -52 -7 -22 1 -42 -2
-46 -7 -3 -5 -27 -12 -55 -15 -29 -4 -55 -14 -64 -25 -13 -16 -34 -18 -198
-20 -170 -2 -182 -3 -177 -20 3 -9 1 -20 -4 -23 -13 -8 -25 75 -16 106 13 45
68 158 76 158 5 0 9 7 9 15 0 8 9 19 20 25 11 6 20 16 20 22 0 7 13 26 29 43
29 31 49 95 30 95 -32 0 -157 -174 -146 -203 2 -7 -4 -23 -13 -37 -20 -28 -64
-131 -73 -171 -9 -36 59 -175 109 -224 47 -45 64 -52 179 -75 102 -20 169 -45
145 -53 -8 -3 -55 -17 -104 -32 -82 -24 -88 -28 -84 -50 3 -13 1 -30 -3 -37
-6 -8 -9 -2 -9 20 0 36 -15 41 -58 19 -124 -63 -160 -82 -182 -97 -14 -10 -42
-27 -63 -39 -39 -22 -39 -22 -44 -1 -8 29 -33 25 -33 -5 0 -21 -9 -30 -49 -49
-46 -21 -84 -56 -107 -98 -8 -14 -11 -15 -28 -2 -16 11 -17 17 -8 26 16 16 15
28 -3 28 -22 0 -83 -60 -67 -67 19 -8 14 -26 -16 -62 l-28 -34 -21 27 c-12 15
-23 32 -25 38 -5 14 -45 5 -73 -16 -19 -14 -19 -15 13 -26 17 -7 32 -14 32
-16 0 -10 -33 -70 -48 -86 -14 -16 -13 -20 4 -40 10 -12 31 -33 47 -46 35 -30
34 -46 -3 -79 -20 -17 -30 -36 -30 -55 0 -36 -18 -37 -26 0 -11 50 -14 57 -22
45 -18 -29 -52 35 -45 83 4 27 0 36 -31 59 -26 20 -36 35 -36 56 0 38 -19 47
-41 20 l-18 -22 -3 28 c-2 16 0 40 3 55 9 32 1 42 -19 26 -11 -10 -17 -9 -28
6 -7 11 -11 22 -9 27 9 14 -16 21 -31 8 -8 -7 -14 -8 -12 -3 4 13 -23 74 -33
74 -5 0 -9 18 -9 40 0 33 -3 40 -17 38 -14 -2 -19 5 -21 30 -2 18 1 32 7 32 6
0 11 -9 11 -20 0 -11 5 -20 10 -20 14 0 12 44 -2 58 -10 10 -5 18 23 41 32 26
34 32 31 75 -2 25 -8 46 -13 46 -5 0 -9 23 -9 51 0 43 -3 52 -21 56 -18 5 -20
11 -16 47 3 23 3 33 0 23 -2 -9 -11 -17 -19 -17 -10 0 -14 12 -14 43 0 33 3
39 11 27 9 -12 10 -12 5 3 -3 10 -6 41 -6 69 0 40 -4 51 -18 55 -21 5 -46 85
-39 124 2 13 2 18 -1 10 -5 -17 -32 41 -32 70 0 12 -5 16 -15 13 -8 -4 -15 -1
-15 6 0 6 -5 8 -10 5 -6 -4 -8 -16 -5 -28 5 -16 4 -18 -3 -8 -6 9 -23 12 -49
10 -36 -4 -39 -2 -35 17 3 15 -2 24 -16 28 -11 4 -23 13 -26 21 -3 8 -12 15
-21 15 -8 0 -15 9 -15 19 0 11 -9 22 -19 26 -11 3 -22 12 -25 20 -7 20 -42 19
-50 -1 -3 -9 -13 -48 -21 -86 -18 -90 -36 -111 -84 -102 -20 4 -40 10 -46 14
-24 19 -6 -85 27 -160 28 -62 59 -131 70 -154 6 -10 16 -44 24 -74 8 -31 18
-61 23 -66 5 -6 11 -23 13 -38 5 -25 3 -27 -21 -21 -32 7 -66 46 -82 93 -16
48 -25 56 -44 36 -21 -20 -64 -21 -72 0 -3 9 5 26 21 43 14 15 26 32 26 39 0
17 -25 15 -40 -3 -16 -20 -39 -19 -62 2 -13 12 -18 30 -18 70 0 40 -4 53 -15
53 -8 0 -15 8 -15 19 0 10 -7 34 -14 53 -8 19 -26 84 -40 144 -14 60 -35 141
-46 179 -34 117 -60 292 -66 440 -6 142 10 294 50 460 43 186 57 267 71 430 9
99 17 203 20 230 2 28 9 77 15 110 17 93 29 231 40 455 10 202 34 383 53 408
6 7 6 12 1 11 -21 -4 -34 2 -34 16 0 18 12 19 27 4 18 -18 43 -3 43 25 0 27
-18 45 -29 28 -7 -12 -45 -20 -48 -9 -7 19 -1 29 25 40 71 30 128 108 112 152
-4 11 -4 29 1 40 4 11 11 50 14 88 4 37 10 67 14 67 15 0 34 56 42 125 4 39
13 133 19 210 13 158 22 194 45 175 8 -7 15 -17 15 -22 0 -11 57 -68 68 -68
11 0 38 70 34 87 -2 7 4 13 11 13 10 0 14 10 13 33 -2 30 1 41 24 87 6 11 10
45 10 76 0 47 3 55 17 52 28 -5 34 -58 9 -85 l-19 -23 20 0 c29 0 41 -55 48
-225 3 -77 10 -176 15 -220 5 -44 11 -139 13 -212 3 -102 8 -135 20 -147 9 -9
20 -16 26 -16 6 0 17 -10 24 -22 15 -24 15 -31 -17 -248 -44 -298 -47 -315
-78 -377 -17 -35 -34 -61 -36 -58 -12 12 -30 -30 -21 -48 9 -17 12 -16 39 5
16 13 29 27 29 31 1 10 13 24 86 101 33 35 61 70 63 77 2 8 13 30 26 49 27 41
47 96 39 104 -4 3 -1 6 5 6 7 0 12 6 12 13 0 8 6 27 14 43 52 105 81 333 96
749 6 156 17 313 25 355 8 41 23 126 34 188 42 231 72 308 151 391 39 41 58
54 83 56 18 1 66 10 107 20 41 10 104 19 140 20 57 2 99 14 150 44 23 14 105
29 220 42 58 6 117 18 132 25 15 8 53 15 85 15 35 1 65 7 74 16 14 11 28 12
70 5 29 -6 55 -15 57 -21 9 -27 142 1 142 30 0 12 6 11 49 -2z m1936 -2692
c22 -9 33 -16 25 -16 -13 -1 -13 -2 0 -11 13 -9 13 -11 0 -21 -11 -8 -12 -12
-2 -16 15 -6 16 -33 0 -33 -6 0 -4 -8 6 -19 16 -18 16 -22 2 -49 -12 -23 -13
-31 -3 -35 7 -2 2 -9 -11 -16 -19 -10 -45 -10 -130 0 -117 14 -469 19 -517 6
-20 -5 -14 1 20 18 28 14 57 35 67 45 9 11 18 20 21 20 3 0 16 10 30 22 13 12
82 46 153 75 127 52 130 53 214 49 47 -2 103 -11 125 -19z m-3326 -12 c114
-29 147 -42 221 -87 117 -72 151 -96 141 -102 -5 -4 -100 -8 -211 -11 -206 -5
-275 -15 -439 -65 -76 -24 -77 -24 -61 -5 7 9 22 13 34 10 12 -3 15 -2 9 1 -8
4 -13 26 -13 61 0 45 -4 58 -22 73 -23 18 -23 19 -4 50 21 37 10 53 -35 47
-16 -2 -26 2 -26 10 0 12 18 18 92 29 22 3 42 8 44 10 15 14 183 1 270 -21z
m3086 -230 c128 -15 166 -24 235 -53 l35 -15 -35 -8 c-23 -5 -37 -4 -42 4 -6
9 -10 9 -17 -1 -6 -10 -27 -12 -82 -8 -41 3 -166 5 -279 5 -197 -1 -204 0
-190 18 27 34 54 54 79 59 14 3 31 7 36 9 25 8 141 4 260 -10z m-2698 -30 c34
-20 49 -43 36 -56 -5 -5 -62 -5 -128 -1 -151 9 -338 -1 -434 -22 -40 -10 -75
-15 -78 -12 -3 2 14 14 37 26 27 14 40 26 36 35 -4 10 6 16 32 20 20 3 57 12
82 20 33 10 91 14 215 12 148 -2 174 -5 202 -22z m4386 -154 c34 -13 76 -70
92 -126 l14 -46 -38 22 -38 21 -44 -22 c-33 -17 -40 -19 -30 -6 7 9 20 16 27
16 8 0 14 5 14 10 0 6 -10 8 -24 4 -14 -3 -27 -1 -31 7 -5 7 -4 10 1 6 5 -3
32 1 59 9 l50 14 -59 -6 c-32 -3 -76 -12 -96 -19 -42 -15 -50 -9 -50 40 0 13
-5 25 -10 27 -6 2 8 16 32 31 44 28 88 34 131 18z m-4823 -119 c20 -97 43
-138 95 -173 l30 -21 -30 7 c-43 9 -185 77 -238 114 -39 27 -87 85 -87 105 0
4 8 6 18 4 9 -1 24 2 32 7 33 21 145 63 152 56 5 -4 17 -48 28 -99z m2680 51
c16 -73 47 -152 68 -177 37 -42 99 -59 211 -58 87 1 102 -1 86 -11 -12 -7 -55
-12 -105 -11 -83 1 -157 20 -230 59 -55 29 -166 56 -220 54 l-55 -3 -3 34 c-3
25 -6 30 -13 19 -6 -10 -9 -10 -9 -1 0 7 12 18 26 24 23 11 28 9 46 -12 l20
-25 -5 25 c-2 14 -6 31 -8 39 -3 9 25 29 81 57 47 24 88 44 91 44 3 0 12 -26
19 -57z m602 37 c50 -19 118 -79 118 -105 0 -16 -49 -60 -90 -80 -36 -19 -201
-67 -207 -61 -2 1 5 14 15 27 25 32 70 145 78 197 8 48 13 50 86 22z m-2713
-17 c21 -10 60 -42 87 -72 44 -49 47 -54 30 -66 -9 -7 -66 -25 -124 -38 -59
-14 -138 -40 -177 -58 -60 -28 -82 -33 -160 -35 l-90 -2 80 7 c122 12 205 55
224 114 5 17 15 65 21 106 l12 73 29 -6 c16 -3 47 -14 68 -23z m-609 -238 c36
-15 72 -34 80 -42 13 -13 12 -15 -15 -11 -16 3 -24 3 -17 1 19 -7 14 -20 -10
-28 -30 -10 -110 -6 -123 6 -5 5 -16 9 -25 9 -41 1 -65 59 -33 80 13 8 14 13
6 16 -7 3 -13 9 -13 14 0 10 60 -8 150 -45z m-1322 -216 c26 -28 65 -56 97
-70 30 -13 55 -26 55 -29 0 -22 -97 -80 -132 -80 -33 0 -119 -44 -152 -78 -42
-42 -79 -163 -73 -237 6 -71 42 -181 69 -209 11 -12 30 -41 43 -66 32 -63 60
-86 139 -114 70 -26 106 -50 106 -71 0 -7 7 -12 16 -11 9 0 25 -11 36 -26 26
-34 19 -66 -27 -117 -19 -21 -35 -41 -35 -45 0 -3 12 -6 28 -6 47 0 55 -12 56
-88 l2 -70 -25 20 c-22 16 -39 19 -111 17 -47 -1 -89 -5 -95 -9 -13 -9 -45 -9
-40 1 3 3 -4 9 -14 12 -31 8 -72 80 -80 142 -4 31 -13 60 -20 64 -9 6 -8 15 2
40 13 30 18 33 66 35 32 2 59 10 71 21 26 24 25 35 -3 35 -46 0 -155 137 -206
259 -32 76 -46 230 -32 345 12 86 33 152 123 373 l33 83 30 -38 c16 -20 49
-58 73 -83z m6139 -576 c-9 -199 -32 -258 -122 -312 -29 -18 -79 -37 -114 -43
-63 -12 -71 -21 -51 -59 15 -28 -1 -23 -38 11 -18 17 -45 36 -60 44 l-26 14
30 15 c16 8 70 25 121 37 162 40 196 96 239 398 3 17 10 32 16 32 8 0 9 -40 5
-137z m-6084 80 c20 -12 48 -86 42 -114 -4 -16 -10 -29 -13 -29 -4 0 -24 -16
-46 -35 -21 -19 -46 -35 -55 -35 -49 0 -56 159 -9 209 18 20 50 21 81 4z
m2721 -1329 c76 -19 153 -34 172 -34 18 0 71 14 116 30 101 37 205 47 306 30
89 -15 321 -102 342 -129 9 -12 136 -108 157 -119 12 -7 29 -19 37 -28 59 -58
-54 -33 -141 32 -17 13 -34 24 -37 24 -3 0 -33 18 -67 40 -34 22 -71 40 -82
40 -10 0 -33 6 -50 14 -47 21 -201 47 -287 49 -81 1 -150 -17 -234 -62 -39
-21 -52 -36 -66 -71 l-18 -45 -16 37 c-9 21 -16 43 -16 50 -1 7 -9 3 -19 -9
-11 -13 -24 -23 -31 -23 -6 0 -23 -12 -37 -26 -26 -27 -28 -27 -89 -15 -59 12
-293 8 -337 -5 -10 -3 -23 -1 -30 4 -7 5 -46 12 -87 15 -41 2 -76 10 -78 16
-7 22 -50 10 -108 -29 -177 -120 -222 -147 -246 -152 -16 -3 -28 -1 -28 4 0
16 22 52 54 86 70 75 338 223 484 268 175 53 243 54 436 8z m-192 -499 c298
-61 337 -66 446 -61 419 21 436 20 559 -36 58 -26 75 -29 128 -25 33 3 74 8
90 12 l30 6 -23 -18 c-13 -10 -41 -33 -63 -50 -23 -18 -47 -33 -55 -33 -8 0
-14 -4 -14 -9 0 -10 -129 -75 -170 -86 -26 -6 -75 -25 -145 -56 -23 -10 -54
-20 -70 -24 -17 -3 -50 -15 -75 -25 -90 -37 -247 -52 -287 -27 -6 4 -14 3 -17
-2 -3 -5 -54 -9 -113 -10 -58 -1 -110 -4 -113 -6 -15 -9 -258 45 -320 71 -72
30 -260 78 -269 68 -3 -3 -6 -13 -6 -22 0 -10 -9 -18 -22 -20 -13 -2 -23 -10
-23 -17 0 -24 -75 -53 -155 -61 -33 -3 -65 14 -65 34 0 38 -13 35 -60 -12 -11
-11 -20 -15 -20 -9 0 6 7 16 15 23 8 7 15 20 15 30 0 10 7 23 16 31 9 8 13 21
10 35 -4 13 -2 26 4 29 15 10 12 21 -15 53 -27 32 -34 52 -11 33 11 -9 15 -5
20 21 4 18 17 41 31 50 21 16 34 17 117 8 93 -9 138 -6 138 11 0 5 11 9 24 9
14 0 37 5 51 10 22 8 25 13 15 25 -6 7 -26 15 -43 17 -22 2 5 11 88 30 133 30
222 31 357 3z"/>
<path d="M6603 8960 c-56 -24 -67 -101 -21 -140 27 -22 114 -27 139 -7 69 53
38 145 -51 153 -25 2 -55 0 -67 -6z"/>
<path d="M7643 8946 c-24 -21 -27 -31 -28 -82 0 -47 3 -58 15 -56 8 2 37 6 65
9 27 4 61 13 74 21 20 14 22 21 18 56 -10 74 -86 101 -144 52z"/>
<path d="M2505 1492 c-93 -117 -150 -197 -186 -263 -14 -27 -31 -54 -36 -61
-6 -7 -30 -50 -54 -96 -24 -46 -52 -92 -61 -102 -10 -11 -18 -22 -18 -24 0 -9
-63 -110 -77 -124 -7 -8 -11 -18 -7 -23 3 -5 -2 -12 -10 -15 -9 -3 -16 -10
-16 -14 0 -5 -10 -30 -21 -57 -12 -26 -23 -59 -25 -72 -1 -13 -6 -26 -10 -30
-4 -3 -4 4 -1 17 3 12 1 20 -4 16 -5 -3 -9 -18 -9 -35 0 -16 -4 -29 -9 -29 -5
0 -13 -10 -16 -22 -4 -13 -14 -34 -24 -48 -9 -14 -33 -63 -53 -110 -52 -118
-47 -78 11 92 59 173 62 180 162 380 43 89 79 163 79 166 0 7 -73 -48 -92 -70
-10 -11 -18 -17 -18 -13 0 4 -9 -4 -20 -18 -12 -14 -43 -40 -70 -58 -28 -18
-50 -36 -50 -41 0 -5 5 -6 12 -2 7 5 8 3 4 -5 -5 -7 -15 -10 -23 -7 -16 6 -58
-12 -49 -21 8 -8 -13 -43 -26 -43 -7 0 -6 5 2 15 29 35 -1 19 -95 -49 -55 -41
-108 -81 -117 -89 -9 -9 -28 -23 -42 -32 -14 -10 -26 -23 -26 -30 0 -8 -8 -11
-20 -8 -12 3 -20 2 -18 -3 3 -10 -39 -53 -127 -129 -72 -62 -86 -76 -105 -104
-8 -13 -23 -32 -32 -43 -10 -12 -18 -27 -18 -34 0 -8 -6 -11 -15 -8 -10 4 -15
0 -15 -15 0 -12 -4 -21 -9 -21 -6 0 -17 -12 -25 -27 -24 -46 -86 -173 -86
-178 0 -3 340 -5 755 -5 674 0 755 2 755 15 0 9 -12 62 -26 118 -71 278 -85
357 -91 527 -4 127 -2 189 11 270 26 167 56 300 83 370 40 103 64 201 61 248
l-3 43 -80 -99z"/>
<path d="M6953 1499 c21 -176 28 -209 52 -261 61 -133 68 -262 30 -564 -25
-204 -45 -316 -90 -508 -14 -60 -25 -122 -25 -137 0 -49 17 -32 24 24 4 29 12
59 17 67 8 12 9 9 5 -10 -3 -14 -8 -44 -12 -68 l-7 -42 777 0 c427 0 776 2
776 5 0 16 -188 274 -228 313 -124 122 -271 236 -496 385 -86 57 -186 133
-231 177 -83 80 -132 120 -146 120 -4 0 21 -62 55 -137 63 -137 128 -316 141
-383 6 -32 4 -30 -18 15 -13 28 -39 91 -57 140 -46 127 -283 616 -324 670 -13
17 -58 64 -101 105 -43 41 -94 90 -113 109 l-35 33 6 -53z"/>
<path d="M975 300 c-354 -159 -481 -219 -575 -274 l-45 -26 316 0 315 0 60
122 c52 108 94 179 150 256 9 12 13 22 8 21 -5 0 -108 -45 -229 -99z"/>
<path d="M8303 337 c17 -23 77 -109 132 -189 l100 -147 204 -1 c112 0 202 2
199 5 -3 3 -83 44 -178 91 -176 86 -306 161 -414 240 -33 24 -64 44 -68 44 -4
0 7 -19 25 -43z"/>
</g>
</svg>
